<?xml version="1.0" encoding="utf-8" ?><svg xmlns="http://www.w3.org/2000/svg" xmlns:xlink="http://www.w3.org/1999/xlink" width="1024" height="1024" viewBox="0 0 1024 1024"><path fill="#090909" d="M921.286 122.979C925.803 124.737 942.153 120.762 945.433 122.678C892.702 155.753 856.774 212.707 842.99 272.807C828.27 335.42 839.423 401.324 873.926 455.606C885.353 473.802 894.624 485.016 914.685 492.385C907.239 496.727 898.971 498.614 890.674 500.543C855.494 508.721 817.645 506.588 782.876 497.347C777.306 495.867 767.969 493.097 762.966 490.251C763.108 481.433 763.591 472.458 763.787 463.72C764.408 435.987 757.462 411.039 750.31 384.575C747.554 374.382 745.45 360.653 744.083 350.001C744.005 348.885 744.005 348.199 744.031 347.093C744.041 346.448 744.274 343.802 743.633 343.407C742.686 343.58 742.963 346.387 742.969 346.961C742.975 347.975 742.972 348.989 742.961 350.003C739.302 377.972 733.198 468.901 719.605 488.97C709.854 484.451 700.113 482.11 689.307 482.835C662.104 484.661 632.013 495.423 612.875 515.307C617.342 508.475 625.496 487.885 628.523 480.13C651.204 422.011 659.129 362.753 646.114 301.5C636.369 255.639 624.854 221.833 596.229 184.075C591.247 177.502 582.426 165.253 576.741 159.707C583.587 164.101 591.356 168.908 599.037 171.578C631.54 182.88 669.965 185.134 702.634 173.811C699.9 181.669 698.12 189.695 696.228 197.796C691.07 219.564 688.358 241.84 688.141 264.21C687.772 294.56 692.769 325.244 693.633 355.512C694.117 372.479 695.627 390.287 695.568 407.139C695.602 407.711 695.601 410.988 696.219 411.285C696.799 411.023 696.905 409.041 696.949 408.463C698.028 404.618 699.219 397.529 700.034 393.427C701.996 383.913 703.812 374.37 705.482 364.801C713.404 319.954 719.564 278.981 709.981 233.688C707.69 222.857 705.953 214.173 701.713 203.742C709.282 202.248 716.925 201.482 724.762 199.916C746.989 195.539 768.347 187.545 787.985 176.251C779.768 197.48 775.927 211.799 772.589 234.457C765.292 284.008 775.138 334.366 793.07 380.646C799.123 396.267 806.278 412.328 816.422 425.812C814.012 418.437 811.225 411.77 808.776 404.571C805.483 394.67 802.775 384.585 800.668 374.367C787.884 313.16 793.518 220.342 807.291 159.726C833.166 142.381 869.737 130.582 900.36 125.679C906.685 124.666 914.917 123.223 921.286 122.979Z"/><path fill="#090909" d="M153.688 408.471C155.893 410.037 154.288 410.767 154.508 412.262C155.204 417.016 155.119 420.47 154.209 425.249C153.713 427.858 155.167 432.96 155.679 435.514C154.204 453.518 150.175 473.104 146.743 490.922C144.617 501.961 142.151 513.033 139.567 524.015C137.063 534.662 132.026 546.077 129.97 556.478C129.453 559.089 129.899 571.267 129.915 574.498C129.978 587.288 130.604 600.395 131.506 613.15C131.875 618.376 131.903 624.985 132.56 630.056C155.398 634.139 174.72 637.311 198.101 638.523C197.888 631.118 196.137 619.608 195.191 612.014C191.584 585.086 187.097 558.284 181.738 531.649C203.005 515.108 240.02 497.724 265.402 487.837C273.982 484.495 283.614 482.056 292.002 478.89L292.466 480.651C252.99 526.074 236.2 583.821 236.83 643.75C237.695 726.039 267.687 802.428 341.312 846.297C313.297 835.391 260.13 836.576 232.726 849.524C214.255 858.252 209.286 863.434 196.748 877.713C196.505 873.331 197.809 867.263 198.187 862.279C199.515 844.75 200.653 827.48 201.546 809.911C203.25 768.147 202.62 726.32 199.658 684.627C182.67 682.666 165.521 682.319 148.654 678.851C145.637 678.23 141.606 677.523 138.549 677.307C141.422 715.084 162.719 771.339 177.775 806.442C181.74 815.688 187.416 825.3 191.205 834.287C181.223 835.09 170.255 836.243 160.574 838.703C112.659 850.879 69.3865 881.756 32.7835 913.737C46.3779 891.404 57.43 871.762 67.3647 847.418C88.2369 795.641 96.3429 739.602 90.9982 684.032C90.2819 676.343 89.7486 669.462 88.4584 661.845C80.3465 655.956 71.323 648.911 64.7744 641.384C48.3766 622.536 36.581 597.305 30.242 573.334L31.3631 571.818C40.1391 589.44 61.6373 608.161 79.9669 615.527C78.6324 607.266 75.5504 596.493 73.2223 588.327C68.0532 570.56 62.4877 552.911 56.5299 535.393C43.35 495.599 32.1361 460.81 24.2007 419.496L25.6747 419.249C26.8351 421.433 28.0213 423.604 29.2332 425.76C55.1377 471.48 106.839 495.79 140.954 441.755C147.548 431.309 150.524 420.254 153.688 408.471Z"/><path fill="#090909" d="M329.597 470.659C382.847 465.274 418.256 549.786 428.231 591.833C444.89 662.054 437.917 744.644 392.571 803.267C383.345 815.194 368.826 824.87 353.619 826.229C342.996 828.757 325.966 822.663 317.491 816.39C280.798 789.232 260.168 737.86 251.908 694.413C242.433 645.646 246.572 595.212 263.87 548.643C272.982 523.962 285.486 499.531 305.47 481.757C312.886 475.162 320 472.46 329.597 470.659ZM372.759 772.697C375.15 773.503 374.878 773.835 376.925 773.334C378.084 771.918 379.087 765.752 379.661 763.474C385.814 737.517 388.62 707.974 385.932 681.334C381.164 634.068 362.78 584.915 334.883 546.439C329.869 539.524 322.992 530.706 316.519 525.411C313.069 532.466 310.357 542.789 308.366 550.433C296.477 596.083 300.344 648.934 316.126 693.156C325.264 718.762 345.849 759.681 371.04 771.884C371.611 772.16 372.184 772.431 372.759 772.697Z"/><path fill="#090909" d="M319.443 560.043C326.213 559.274 327.005 560.673 329.3 566.42C327.963 572.127 326.484 577.972 326.085 583.826C322.74 632.913 371.565 667.784 370.101 715.835C369.939 721.153 370.055 727.096 367.845 732.056L367.57 731.779C371.414 673.272 304.814 632.502 314.12 569.935C314.813 565.276 315.728 562.755 319.443 560.043Z"/><path fill="#090909" d="M536.22 160.234C591.205 158.507 626.149 251.796 635.967 295.242C650.264 358.506 638.982 430.205 598.817 482.227C588.074 496.142 575.351 505.671 557.726 507.84C542.924 508.532 529.408 504.232 518.007 494.653C480.714 463.322 460.011 407.497 454.579 360.249C448.689 312.878 455.482 262.203 476.548 219.095C488.564 194.506 506.187 163.647 536.22 160.234ZM580.354 456.531C582.382 457.011 581.541 457.21 583.041 456.342C584.868 452.424 587.276 438.392 588.196 433.775C596.593 391.669 590.47 350.853 575.922 310.761C565.823 282.928 551.339 254.494 532.751 231.214C529.345 226.947 524.48 220.956 519.78 218.245C505.825 253.982 503.955 303.115 510.608 340.482C516.874 375.679 545.71 442.646 580.354 456.531Z"/><path fill="#090909" d="M572.293 408.804C571.462 398.753 568.826 388.934 564.51 379.819C554.612 358.602 508.104 298.436 522.036 267.488C523.355 264.559 535.674 261.884 533.324 276.758C527.784 311.821 556.025 342.923 569.269 372.977C574.334 384.426 576.325 404.95 572.972 416.874C572.489 413.652 572.94 411.948 572.293 408.804Z"/><path fill="#090909" fill-opacity="0.87843138" d="M572.293 408.804C572.94 411.948 572.489 413.652 572.972 416.874C572.97 417.536 572.697 419.438 572.214 419.757C571.768 418.959 572.219 410.319 572.293 408.804Z"/><path fill="#090909" d="M974.618 445.126L975.632 446.026C956.831 492.093 932.685 583.241 938.877 632.133C921.318 608.596 866.567 582.481 840.682 569.295C829.963 563.835 818.9 557.145 808.319 551.469C810.816 561.105 817.161 576.102 820.642 586.521C825.867 602.161 828.101 614.214 831.926 629.766C854.506 630.135 880.538 622.722 899.749 610.952C895.93 644.847 901.45 680.203 911.86 712.536C907.316 707.024 902.418 701.305 897.09 696.552C881.173 682.356 857.298 670.941 836.475 666.163C836.475 673.913 837.16 681.305 837.107 689.259C836.939 714.4 832.954 738.157 824.938 761.994C822.212 770.098 817.723 776.919 814.965 784.348C824.628 781.143 836.055 775.303 845.314 770.845C891.556 748.578 933.225 716.542 970.478 681.486C976.319 675.989 982.746 668.642 988.472 662.696C980.874 681.779 977.024 706.788 974.858 727.254L974.383 727.893C972.609 730.128 971.835 738.001 972.479 740.503C973.975 746.318 971.799 752.757 973.548 758.158C973.837 760.992 973.757 766.93 973.793 769.955C973.897 778.755 973.983 786.568 974.765 795.341C978.613 834.646 985.924 873.536 996.614 911.555C968.051 877.872 937.411 855.969 895.172 842.895C832.516 823.501 774.989 838.97 718.771 868.827C728.349 859.117 734.94 852.956 743.911 842.238C776.398 803.376 794.975 754.778 796.695 704.155C797.083 689.648 795.585 675.783 794.322 661.418C787.361 663.184 784.081 664.666 778.476 669.126C773.646 652.878 766.453 640.809 761.37 626.364C769.924 626.628 781.533 628.474 790.323 629.441C786.487 608.741 780.982 588.386 773.864 568.574C770.537 559.495 762.307 542.729 760.739 534.246C759.69 528.572 762.136 504.983 762.616 497.847C798.659 515.962 843.734 519.435 882.876 510.77C922.084 502.091 953.314 478.812 974.618 445.126Z"/><path fill="#090909" d="M51.4637 123.746C118.423 144.155 185.631 177.171 256.62 178.433C299.436 179.194 330.334 162.36 349.313 123.028C345.763 137.082 344.29 152.387 341.975 166.827C334.096 215.963 329.597 262.528 331.198 312.355C320.111 301.793 306.986 293.933 293.89 286.148C259.703 265.826 223.711 248.437 188.422 230.119C182.008 226.789 175.92 223.197 169.298 220.262C179.102 236.475 187.517 252.735 193.795 270.647C197.5 281.215 200.335 292.168 203.881 302.562C232.315 298.926 258.375 296.354 285.618 286.818C284.949 298.026 282.859 309.607 282.139 321.301C280.267 351.687 282.884 377.542 286.535 407.352C279.98 395.416 273.016 383.389 263.171 373.812C249.449 360.463 231.982 349.742 213.118 345.695C213.964 351.201 217.035 362.467 218.544 368.201C226.771 399.474 241.611 452.739 261.535 478.346C252.848 480.697 244.7 484.249 236.445 487.795C197.367 504.193 163.179 530.39 137.181 563.857C156.985 505.415 172.179 440.682 166.755 378.894C166.226 372.867 164.965 356.385 163.357 350.686C154.868 353.829 146.532 362.029 141.618 369.467C134.014 349.961 124.071 332.153 109.36 317.038C120.093 315.301 130.808 313.456 141.503 311.503C145.532 310.794 153.373 309.735 156.967 308.794C147.59 250.797 96.0573 161.702 50.325 124.768L51.4637 123.746Z"/><path fill="#090909" d="M757.106 451.314C755.259 461.774 754.399 477.651 753.083 488.695C748.423 527.79 746.108 567.169 743.036 606.382L742.662 606.774C741.218 608.232 740.178 615.28 740.864 617.243C741.451 618.925 741.912 618.544 740.746 620.647C738.363 617.208 736.501 612.74 734.124 609.032C717.394 582.936 700.318 545.733 667.171 538.417C657.706 536.921 650.914 542.068 649.425 551.195C645.328 576.312 671.579 590.449 689.147 602.822C701.848 611.766 717.58 619.112 730.683 628.231C741.458 635.795 750.975 645.01 758.884 655.534C778.557 681.506 787.475 713.197 782.94 745.477C780.037 766.137 772.693 785.147 759.047 801.224C740.678 822.866 712.311 829.854 685.006 825.662C658.506 821.593 638.824 806.702 622.892 785.741C599.949 755.556 589.975 718.28 587.159 680.942C585.891 664.631 585.397 646.022 587.734 629.761C593.694 631.989 603.315 636.838 609.505 639.585C631.502 649.185 652.918 659.541 672.856 672.964C692.64 686.282 723.068 720.989 704.597 745.776C704.782 744.767 704.942 743.754 705.078 742.738C708.706 716.23 672.764 700.655 651.574 698.089C650.7 704.752 651.509 716.514 652.647 723.363C656.819 749.331 682.261 783.455 711.742 778.246C734.21 774.277 744.112 742.518 739.037 723.037C731.066 692.442 695.086 670.234 669.89 654.025C642.722 636.548 611.771 614.804 602.623 582.08C598.753 565.201 601.977 545.47 611.38 531.078C632.945 498.072 687.185 479.961 721.906 502.377C740.856 497.167 751.189 468.058 757.106 451.314Z"/><path fill="#090909" d="M614.701 474.473C610.401 494.065 602.373 515.605 597.15 535.238C578.674 604.683 566.33 671.202 589.1 741.56C600.551 776.942 614.738 805.732 636.702 836.356L635.89 836.865C600.767 809.757 546.837 781.678 501.452 787.844C467.79 792.417 432.544 813.682 411.924 840.557C410.708 842.147 409.509 843.75 408.325 845.364C413.802 823.119 419.448 800.915 425.261 778.756C430.521 758.737 436.404 737.432 440.132 717.141C443.639 698.052 444.045 678.207 444.511 659.029C445.754 607.903 434.985 556.019 408.658 511.798C404.23 504.362 392.541 486.228 386.784 479.968C394.429 485.073 412.042 492.206 421.071 496.347L454.451 511.6C471.901 519.757 489.414 528.438 507.94 533.892C510.838 534.745 514.016 535.459 516.843 536.444C512.459 552.158 508.822 570.267 505.305 586.279L487.07 669.438L473.623 728.268C472.016 735.475 468.704 748.406 467.897 755.384C480.107 746.442 492.375 737.583 504.703 728.805C513.267 722.712 524.793 714.794 532.908 708.199C534.226 703.202 535.681 679.702 536.169 673.188C539.733 625.631 539.422 563.425 523.173 518.031C525.647 518.69 527.866 519.184 530.414 519.5C565.73 523.888 600.181 507.903 614.701 474.473Z"/><path fill="#090909" d="M348.714 168.306C354.658 170.694 360.752 173.571 366.752 175.757C397.324 186.9 434.158 190.306 465.874 182.234C475.417 179.806 485.432 175.101 494.302 170.996C474.143 186.45 457.747 200.937 442.082 221.13C412.704 259.001 394.405 303.689 375.787 347.374C364.948 373.287 353.502 398.942 341.459 424.318C396.81 390.999 416.432 357.789 436.832 298.093C440.32 297.386 439.957 289.729 441.347 287.8C442.213 287.786 441.48 293.801 441.916 294.744C442.21 295.381 441.791 299.817 442.07 300.194C442.581 300.197 442.991 299.729 443.58 299.402C443.903 312.583 443.311 326.959 444.116 340.033C448.365 409.028 471.328 472.901 515.83 526.203C501.877 520.17 485.527 511.097 471.117 504.532C405.75 474.751 341.419 450.453 269.325 470.263C272.162 465.593 278.213 458.046 281.683 453.055C288.639 442.932 295.115 432.487 301.089 421.754C332.028 366.421 346.552 310.236 349.528 247.197C350.776 220.751 349.729 194.681 348.714 168.306Z"/><path fill="#090909" d="M928.211 162.58C928.287 163.579 923.32 169.058 922.415 170.139C914.351 179.773 905.202 192.333 898.737 203.061C878.857 236.657 862.849 279.885 860.03 318.86C856.673 365.257 872.67 418.275 904.607 452.467C908.111 456.219 919.327 465.518 918.935 470.236L918.029 470.747C915.976 470.732 915.173 470.095 913.275 469.128C904.127 462.675 894.83 455.035 887.736 446.179C859.161 410.509 846.77 357.982 850.625 312.941C854.476 267.95 875.192 219.922 904.136 185.553C910.172 178.386 920.959 168.562 928.211 162.58Z"/><path fill="#090909" d="M42.5585 644.464C44.357 644.524 45.9672 644.638 47.5936 645.492C55.079 649.422 65.6659 679.045 68.3123 688.087C73.2975 705.12 75.7386 723.421 76.0835 741.147C76.9028 783.249 67.7522 811.52 47.75 847.948C47.3802 848.623 46.8446 849.433 46.43 850.103C46.2956 849.704 50.7975 837.945 51.4856 836.17C68.6685 791.86 72.6101 744.448 58.6971 698.574C55.7327 688.787 51.6951 679.356 46.6578 670.456C41.5202 661.438 32.2417 652.829 42.5585 644.464Z"/><defs><linearGradient id="gradient_0" gradientUnits="userSpaceOnUse" x1="117.44228" y1="216.41585" x2="46.976841" y2="224.55556"><stop offset="0" stop-color="black" stop-opacity="0.96862745"/><stop offset="1" stop-color="#0B0B0C"/></linearGradient></defs><path fill="url(#gradient_0)" d="M125.633 293.109C122.141 284.353 119.299 274.81 116.125 265.869C105.059 234.703 88.7581 206.734 65.238 183.288C58.878 176.818 52.1751 170.685 45.6315 164.403C42.2223 161.131 35.7477 155.667 39.3394 150.368C40.2783 148.991 41.7396 148.058 43.3839 147.785C46.0414 147.364 49.7938 148.881 51.759 150.599C94.4658 187.921 118.42 232.99 126.611 288.832C126.312 290.834 126.472 291.302 125.633 293.109Z"/><path fill="#090909" d="M1002.17 850.999C1000.53 841.836 999.621 832.515 997.723 823.323C989.173 781.912 980.494 736.599 993.362 695.225C997.943 688.464 1005.58 691.742 1003.79 699.391C998.206 723.223 997.159 743.318 997.088 767.775C996.551 771.848 996.209 774.554 996.294 778.751C996.328 780.429 997.34 792.762 998.937 792.501C999.352 792.165 999.298 792.155 999.605 791.639C999.913 797.29 1001 803.498 1001.13 808.952C1000.01 813.91 1001.05 816.301 1000.33 821C999.594 825.829 1001.22 829.306 1001.25 834.005C1001.26 835.483 1001.39 837.154 1002.85 837.373C1002.96 839.478 1003.2 842.451 1003.04 844.478C1002.74 846.792 1003.1 849.039 1002.17 850.999Z"/><path fill="#090909" fill-opacity="0.93333334" d="M436.832 298.093C439.663 289.258 442.129 280.181 444.698 271.269C444.321 280.594 443.574 290.07 443.58 299.402C442.991 299.729 442.581 300.197 442.07 300.194C441.791 299.817 442.21 295.381 441.916 294.744C441.48 293.801 442.213 287.786 441.347 287.8C439.957 289.729 440.32 297.386 436.832 298.093Z"/><path fill="#090909" fill-opacity="0.90196079" d="M154.736 402.593C155.444 403.871 155.479 404.015 155.983 405.409C156.211 414.408 156.697 426.606 155.679 435.514C155.167 432.96 153.713 427.858 154.209 425.249C155.119 420.47 155.204 417.016 154.508 412.262C154.288 410.767 155.893 410.037 153.688 408.471C153.815 406.815 154.436 404.38 154.736 402.593Z"/><path fill="#090909" fill-opacity="0.94509804" d="M1001.13 808.952C1001.88 813.716 1001.9 821.819 1002.11 826.75C1002.23 829.569 1002.89 834.996 1002.85 837.373C1001.39 837.154 1001.26 835.483 1001.25 834.005C1001.22 829.306 999.594 825.829 1000.33 821C1001.05 816.301 1000.01 813.91 1001.13 808.952Z"/><path fill="#090909" fill-opacity="0.96470588" d="M973.548 758.158C971.799 752.757 973.975 746.318 972.479 740.503C971.835 738.001 972.609 730.128 974.383 727.893L974.858 727.254C973.67 737.628 974.088 747.81 973.548 758.158Z"/><path fill="#090909" fill-opacity="0.96862745" d="M997.088 767.775C998.192 775.472 998.421 783.563 999.605 791.639C999.298 792.155 999.352 792.165 998.937 792.501C997.34 792.762 996.328 780.429 996.294 778.751C996.209 774.554 996.551 771.848 997.088 767.775Z"/><path fill="#090909" fill-opacity="0.98823529" d="M921.286 122.979C923.916 122.449 945.511 120.976 946.962 121.549L947.07 121.718C946.79 122.082 945.866 122.473 945.433 122.678C942.153 120.762 925.803 124.737 921.286 122.979Z"/><path fill="#090909" fill-opacity="0.98039216" d="M743.036 606.382C742.991 607.553 741.783 622.555 741.928 622.337C741.34 622.457 740.891 621.026 740.746 620.647C741.912 618.544 741.451 618.925 740.864 617.243C740.178 615.28 741.218 608.232 742.662 606.774L743.036 606.382Z"/><path fill="#090909" fill-opacity="0.86666667" d="M1003.04 844.478C1003.33 846.328 1004.33 862.012 1003.79 862.741L1003.74 862.74C1003.63 862.526 1003.61 862.254 1003.58 862.027L1003.55 861.705C1003.48 860.713 1003.53 860.651 1003.16 859.762C1002.91 856.642 1002.57 854.076 1002.17 850.999C1003.1 849.039 1002.74 846.792 1003.04 844.478Z"/><path fill="#090909" fill-opacity="0.97647059" d="M126.611 288.832C126.848 290.015 127.611 295.231 126.723 295.843C126.698 295.82 126.673 295.797 126.647 295.774L126.455 295.695L126.732 295.389L126.216 295.218C125.998 294.512 125.779 293.833 125.633 293.109C126.472 291.302 126.312 290.834 126.611 288.832Z"/><path fill="#151416" fill-opacity="0.8509804" d="M974.618 445.126C975.377 443.82 976.176 442.541 976.845 441.186L977.293 441.073L977.092 440.755C977.232 440.552 977.127 440.651 977.474 440.552C977.5 440.452 977.526 440.353 977.552 440.253C977.654 440.302 977.757 440.35 977.859 440.399C977.821 441.172 976.054 444.895 975.632 446.026L974.618 445.126Z"/><path fill="#090909" fill-opacity="0.76862746" d="M154.874 400.371L156.052 400.506C155.975 402.193 155.978 403.728 155.983 405.409C155.479 404.015 155.444 403.871 154.736 402.593C154.91 401.6 154.88 401.457 154.874 400.371Z"/><path fill="#928B92" fill-opacity="0.17254902" d="M695.568 407.139C696.008 408.098 695.929 408.196 696.949 408.463C696.905 409.041 696.799 411.023 696.219 411.285C695.601 410.988 695.602 407.711 695.568 407.139Z"/><path fill="#090909" fill-opacity="0.98431373" d="M30.242 573.334C30.1426 572.83 29.1297 569.491 29.7776 569.359C30.2858 569.726 31.0075 571.201 31.3631 571.818L30.242 573.334Z"/><path fill="#151416" fill-opacity="0.91764706" d="M742.969 346.961C742.963 346.387 742.686 343.58 743.633 343.407C744.274 343.802 744.041 346.448 744.031 347.093L742.969 346.961Z"/><path fill="#151416" fill-opacity="0.85882354" d="M50.325 124.768L49.4034 124.087C49.0799 123.853 48.1892 123.395 48.2786 122.87C48.8592 122.4 50.8774 123.504 51.4637 123.746L50.325 124.768Z"/><path fill="#090909" fill-opacity="0.87450981" d="M292.002 478.89C292.542 478.709 294.189 477.914 294.688 478.235C294.838 478.729 292.864 480.269 292.466 480.651L292.002 478.89Z"/><path fill="#6C686F" fill-opacity="0.11764706" d="M742.969 346.961L744.031 347.093C744.005 348.199 744.005 348.885 744.083 350.001L742.961 350.003C742.972 348.989 742.975 347.975 742.969 346.961Z"/><path fill="#090909" fill-opacity="0.74117649" d="M24.2007 419.496C23.6607 415.8 24.4576 417.039 25.6747 419.249L24.2007 419.496Z"/><path fill="#151416" fill-opacity="0.49019608" d="M154.874 400.371C155.018 399.638 155.268 397.933 155.732 397.388C156.141 397.684 156.041 400.027 156.052 400.506L154.874 400.371Z"/><path fill="#151416" fill-opacity="0.88627452" d="M636.702 836.356C636.916 836.596 638.077 837.706 637.721 838.094C637.163 838.06 636.317 837.199 635.89 836.865L636.702 836.356Z"/></svg>